{
  "accessors": [
    {
      "bufferView": 2,
      "componentType": 5126,
      "count": 3684,
      "max": [
        0.00087125890422612429,
        0.077144131064414978,
        0.00077619578223675489
      ],
      "min": [
        -0.097691208124160767,
        0.022412249818444252,
        -0.014923560433089733
      ],
      "type": "VEC3"
    },
    {
      "bufferView": 2,
      "byteOffset": 44208,
      "componentType": 5126,
      "count": 3684,
      "max": [
        1,
        0.999969482421875,
        1
      ],
      "min": [
        -1,
        -1,
        -0.99999910593032837
      ],
      "type": "VEC3"
    },
    {
      "bufferView": 1,
      "componentType": 5126,
      "count": 3684,
      "max": [
        0,
        0
      ],
      "min": [
        0,
        0
      ],
      "type": "VEC2"
    },
    {
      "bufferView": 0,
      "componentType": 5125,
      "count": 22080,
      "max": [
        3683
      ],
      "min": [
        0
      ],
      "type": "SCALAR"
    },
    {
      "bufferView": 2,
      "byteOffset": 88416,
      "componentType": 5126,
      "count": 1065,
      "max": [
        0.012137100100517273,
        0.00081833137664943933,
        0.0067679998464882374
      ],
      "min": [
        -0.0016579399816691875,
        -0.013292489573359489,
        -0.0035648660268634558
      ],
      "type": "VEC3"
    },
    {
      "bufferView": 2,
      "byteOffset": 101196,
      "componentType": 5126,
      "count": 1065,
      "max": [
        1,
        1,
        0.99331843852996826
      ],
      "min": [
        -1,
        -1,
        -0.99902790784835815
      ],
      "type": "VEC3"
    },
    {
      "bufferView": 1,
      "byteOffset": 29472,
      "componentType": 5126,
      "count": 1065,
      "max": [
        0,
        0
      ],
      "min": [
        0,
        0
      ],
      "type": "VEC2"
    },
    {
      "bufferView": 0,
      "byteOffset": 88320,
      "componentType": 5125,
      "count": 4608,
      "max": [
        1064
      ],
      "min": [
        0
      ],
      "type": "SCALAR"
    },
    {
      "bufferView": 2,
      "byteOffset": 113976,
      "componentType": 5126,
      "count": 9088,
      "max": [
        0.00071310537168756127,
        0.00095922109903767705,
        0.00095980067271739244
      ],
      "min": [
        -0.097533062100410461,
        -0.016858009621500969,
        -0.00095980777405202389
      ],
      "type": "VEC3"
    },
    {
      "bufferView": 2,
      "byteOffset": 223032,
      "componentType": 5126,
      "count": 9088,
      "max": [
        1,
        1,
        1
      ],
      "min": [
        -1,
        -1,
        -1
      ],
      "type": "VEC3"
    },
    {
      "bufferView": 1,
      "byteOffset": 37992,
      "componentType": 5126,
      "count": 9088,
      "max": [
        0,
        0
      ],
      "min": [
        0,
        0
      ],
      "type": "VEC2"
    },
    {
      "bufferView": 0,
      "byteOffset": 106752,
      "componentType": 5125,
      "count": 41856,
      "max": [
        9087
      ],
      "min": [
        0
      ],
      "type": "SCALAR"
    },
    {
      "bufferView": 2,
      "byteOffset": 332088,
      "componentType": 5126,
      "count": 1152,
      "max": [
        0.00036557408748194575,
        0.022513210773468018,
        0.00037194410106167197
      ],
      "min": [
        -0.097185522317886353,
        0.00077898491872474551,
        -0.00035922310780733824
      ],
      "type": "VEC3"
    },
    {
      "bufferView": 2,
      "byteOffset": 345912,
      "componentType": 5126,
      "count": 1152,
      "max": [
        1,
        0,
        1
      ],
      "min": [
        -1,
        -0.12622809410095215,
        -1
      ],
      "type": "VEC3"
    },
    {
      "bufferView": 1,
      "byteOffset": 110696,
      "componentType": 5126,
      "count": 1152,
      "max": [
        0,
        0
      ],
      "min": [
        0,
        0
      ],
      "type": "VEC2"
    },
    {
      "bufferView": 0,
      "byteOffset": 274176,
      "componentType": 5125,
      "count": 6144,
      "max": [
        1151
      ],
      "min": [
        0
      ],
      "type": "SCALAR"
    },
    {
      "bufferView": 2,
      "byteOffset": 359736,
      "componentType": 5126,
      "count": 2368,
      "max": [
        0.00048619031440466642,
        0.021738100796937943,
        0.00049256411148235202
      ],
      "min": [
        -0.097306147217750549,
        0.019099809229373932,
        -0.00047983630793169141
      ],
      "type": "VEC3"
    },
    {
      "bufferView": 2,
      "byteOffset": 388152,
      "componentType": 5126,
      "count": 2368,
      "max": [
        0.99999052286148071,
        0.99981319904327393,
        0.99999052286148071
      ],
      "min": [
        -0.99999052286148071,
        -0.46712195873260498,
        -0.99999052286148071
      ],
      "type": "VEC3"
    },
    {
      "bufferView": 1,
      "byteOffset": 119912,
      "componentType": 5126,
      "count": 2368,
      "max": [
        0,
        0
      ],
      "min": [
        0,
        0
      ],
      "type": "VEC2"
    },
    {
      "bufferView": 0,
      "byteOffset": 298752,
      "componentType": 5125,
      "count": 13824,
      "max": [
        2367
      ],
      "min": [
        0
      ],
      "type": "SCALAR"
    },
    {
      "bufferView": 2,
      "byteOffset": 416568,
      "componentType": 5126,
      "count": 2642,
      "max": [
        0.037361539900302887,
        0.0023542121052742004,
        0.087244592607021332
      ],
      "min": [
        -0.02504413016140461,
        -0.0022174189798533916,
        -0.087244592607021332
      ],
      "type": "VEC3"
    },
    {
      "bufferView": 2,
      "byteOffset": 448272,
      "componentType": 5126,
      "count": 2642,
      "max": [
        0.99999481439590454,
        0.99999833106994629,
        0.99988549947738647
      ],
      "min": [
        -0.99999898672103882,
        -0.9999995231628418,
        -0.99988549947738647
      ],
      "type": "VEC3"
    },
    {
      "bufferView": 1,
      "byteOffset": 138856,
      "componentType": 5126,
      "count": 2642,
      "max": [
        0,
        0
      ],
      "min": [
        0,
        0
      ],
      "type": "VEC2"
    },
    {
      "bufferView": 0,
      "byteOffset": 354048,
      "componentType": 5125,
      "count": 15744,
      "max": [
        2641
      ],
      "min": [
        0
      ],
      "type": "SCALAR"
    },
    {
      "bufferView": 2,
      "byteOffset": 479976,
      "componentType": 5126,
      "count": 1732,
      "max": [
        0.030001239851117134,
        0.0029858050402253866,
        0.038638010621070862
      ],
      "min": [
        -0.029077500104904175,
        -0.0024167709052562714,
        -0.13207310438156128
      ],
      "type": "VEC3"
    },
    {
      "bufferView": 2,
      "byteOffset": 500760,
      "componentType": 5126,
      "count": 1732,
      "max": [
        0.9871598482131958,
        0.99997562170028687,
        0.98986291885375977
      ],
      "min": [
        -0.98549807071685791,
        -0.99997550249099731,
        -0.98986303806304932
      ],
      "type": "VEC3"
    },
    {
      "bufferView": 1,
      "byteOffset": 159992,
      "componentType": 5126,
      "count": 1732,
      "max": [
        0,
        0
      ],
      "min": [
        0,
        0
      ],
      "type": "VEC2"
    },
    {
      "bufferView": 0,
      "byteOffset": 417024,
      "componentType": 5125,
      "count": 8640,
      "max": [
        1731
      ],
      "min": [
        0
      ],
      "type": "SCALAR"
    },
    {
      "bufferView": 2,
      "byteOffset": 521544,
      "componentType": 5126,
      "count": 1231,
      "max": [
        0.019066089764237404,
        0.021200509741902351,
        0.014481269754469395
      ],
      "min": [
        -0.35806688666343689,
        -0.14442209899425507,
        -0.29077398777008057
      ],
      "type": "VEC3"
    },
    {
      "bufferView": 2,
      "byteOffset": 536316,
      "componentType": 5126,
      "count": 1231,
      "max": [
        0.96020668745040894,
        0.9993634819984436,
        0.99749207496643066
      ],
      "min": [
        -0.9636957049369812,
        -0.99981212615966797,
        -0.99415010213851929
      ],
      "type": "VEC3"
    },
    {
      "bufferView": 1,
      "byteOffset": 173848,
      "componentType": 5126,
      "count": 1231,
      "max": [
        0,
        0
      ],
      "min": [
        0,
        0
      ],
      "type": "VEC2"
    },
    {
      "bufferView": 0,
      "byteOffset": 451584,
      "componentType": 5125,
      "count": 2304,
      "max": [
        1230
      ],
      "min": [
        0
      ],
      "type": "SCALAR"
    }
  ],
  "asset": {
    "extras": {
      "author": "eonmarketing (https://sketchfab.com/eonmarketing)",
      "license": "CC-BY-4.0 (http://creativecommons.org/licenses/by/4.0/)",
      "source": "https://sketchfab.com/3d-models/aviator-black-glasses-a9de4519ecf84395a16f0852fbc1f058",
      "title": "Aviator Black Glasses"
    },
    "generator": "Sketchfab-9.34.0",
    "version": "2.0"
  },
  "bufferViews": [
    {
      "buffer": 0,
      "byteLength": 460800,
      "byteOffset": 0,
      "name": "floatBufferViews",
      "target": 34963
    },
    {
      "buffer": 0,
      "byteLength": 183696,
      "byteOffset": 460800,
      "byteStride": 8,
      "name": "floatBufferViews",
      "target": 34962
    },
    {
      "buffer": 0,
      "byteLength": 551088,
      "byteOffset": 644496,
      "byteStride": 12,
      "name": "floatBufferViews",
      "target": 34962
    }
  ],
  "buffers": [
    {
      "byteLength": 1195584,
      "uri": "scene.bin"
    }
  ],
  "extensionsUsed": [
    "KHR_materials_unlit"
  ],
  "materials": [
    {
      "doubleSided": true,
      "emissiveFactor": [
        0,
        0,
        0
      ],
      "extensions": {
        "KHR_materials_unlit": {}
      },
      "name": "Specs_specs1_New_Material_1",
      "pbrMetallicRoughness": {
        "baseColorFactor": [
          0,
          0,
          0,
          1
        ],
        "metallicFactor": 0,
        "roughnessFactor": 1
      }
    },
    {
      "doubleSided": true,
      "emissiveFactor": [
        0,
        0,
        0
      ],
      "extensions": {
        "KHR_materials_unlit": {}
      },
      "name": "Specs_specs1_New_Material",
      "pbrMetallicRoughness": {
        "baseColorFactor": [
          1,
          1,
          1,
          1
        ],
        "metallicFactor": 0,
        "roughnessFactor": 1
      }
    },
    {
      "doubleSided": true,
      "emissiveFactor": [
        0,
        0,
        0
      ],
      "extensions": {
        "KHR_materials_unlit": {}
      },
      "name": "Specs_New_Material",
      "pbrMetallicRoughness": {
        "baseColorFactor": [
          1,
          0.87890500000000005,
          0.58962300000000001,
          1
        ],
        "metallicFactor": 0,
        "roughnessFactor": 1
      }
    },
    {
      "doubleSided": true,
      "emissiveFactor": [
        0,
        0,
        0
      ],
      "extensions": {
        "KHR_materials_unlit": {}
      },
      "name": "Specs_specs1_New_Material_2",
      "pbrMetallicRoughness": {
        "baseColorFactor": [
          0.72641500000000003,
          0.72641500000000003,
          0.688724,
          1
        ],
        "metallicFactor": 0,
        "roughnessFactor": 1
      }
    }
  ],
  "meshes": [
    {
      "name": "Cube_Specs_specs1_New Material 1_0",
      "primitives": [
        {
          "attributes": {
            "NORMAL": 1,
            "POSITION": 0,
            "TEXCOORD_0": 2
          },
          "indices": 3,
          "material": 0,
          "mode": 4
        }
      ]
    },
    {
      "name": "Cube.001_Specs_specs1_New Material_0",
      "primitives": [
        {
          "attributes": {
            "NORMAL": 5,
            "POSITION": 4,
            "TEXCOORD_0": 6
          },
          "indices": 7,
          "material": 1,
          "mode": 4
        }
      ]
    },
    {
      "name": "Cube.002_Specs_specs1_New Material 1_0",
      "primitives": [
        {
          "attributes": {
            "NORMAL": 9,
            "POSITION": 8,
            "TEXCOORD_0": 10
          },
          "indices": 11,
          "material": 0,
          "mode": 4
        }
      ]
    },
    {
      "name": "Cube.003_Specs_New Material_0",
      "primitives": [
        {
          "attributes": {
            "NORMAL": 13,
            "POSITION": 12,
            "TEXCOORD_0": 14
          },
          "indices": 15,
          "material": 2,
          "mode": 4
        }
      ]
    },
    {
      "name": "Cube.004_Specs_specs1_New Material 1_0",
      "primitives": [
        {
          "attributes": {
            "NORMAL": 17,
            "POSITION": 16,
            "TEXCOORD_0": 18
          },
          "indices": 19,
          "material": 0,
          "mode": 4
        }
      ]
    },
    {
      "name": "Cylinder_Specs_specs1_New Material 1_0",
      "primitives": [
        {
          "attributes": {
            "NORMAL": 21,
            "POSITION": 20,
            "TEXCOORD_0": 22
          },
          "indices": 23,
          "material": 0,
          "mode": 4
        }
      ]
    },
    {
      "name": "Cylinder.001_Specs_specs1_New Material 2_0",
      "primitives": [
        {
          "attributes": {
            "NORMAL": 25,
            "POSITION": 24,
            "TEXCOORD_0": 26
          },
          "indices": 27,
          "material": 3,
          "mode": 4
        }
      ]
    },
    {
      "name": "Plane_Specs_New Material_0",
      "primitives": [
        {
          "attributes": {
            "NORMAL": 29,
            "POSITION": 28,
            "TEXCOORD_0": 30
          },
          "indices": 31,
          "material": 2,
          "mode": 4
        }
      ]
    }
  ],
  "nodes": [
    {
      "children": [
        1
      ],
      "name": "RootNode (gltf orientation matrix)",
      "rotation": [
        -0.70710678118654746,
        -0,
        -0,
        0.70710678118654757
      ]
    },
    {
      "children": [
        2
      ],
      "matrix": [
        0.43570283055305481,
        0,
        0,
        0,
        0,
        0.43570283055305481,
        0,
        0,
        0,
        0,
        0.43570283055305481,
        0,
        0,
        0,
        0,
        1
      ],
      "name": "RootNode (model correction matrix)"
    },
    {
      "children": [
        3
      ],
      "matrix": [
        1,
        0,
        0,
        0,
        0,
        0,
        1,
        0,
        0,
        -1,
        0,
        0,
        0,
        0,
        0,
        1
      ],
      "name": "54c463788e5e4b01ab20d936193dcbeb.fbx"
    },
    {
      "children": [
        4
      ],
      "name": "RootNode"
    },
    {
      "children": [
        5,
        7,
        9,
        11,
        13,
        15,
        17,
        19
      ],
      "matrix": [
        1,
        0,
        0,
        0,
        0,
        1,
        0,
        0,
        0,
        0,
        1,
        0,
        -21.610069274902344,
        22.805309295654297,
        4.1554880142211914,
        1
      ],
      "name": "Specs"
    },
    {
      "children": [
        6
      ],
      "matrix": [
        100,
        0,
        0,
        0,
        0,
        0.034557518501610041,
        -99.99999402888939,
        0,
        0,
        99.99999402888939,
        0.034557518501610041,
        0,
        4.8409981727600098,
        0.27710041403770447,
        -1.6529979705810547,
        1
      ],
      "name": "Cube"
    },
    {
      "mesh": 0,
      "name": "Cube_Specs_specs1_New Material 1_0"
    },
    {
      "children": [
        8
      ],
      "matrix": [
        -74.281327781680716,
        -1.5549306703732435,
        76.526100595446067,
        0,
        66.164062275473114,
        37.409607962577361,
        64.983367835882319,
        0,
        -34.91166704388359,
        116.49953654557574,
        -31.520438933434612,
        0,
        0.79006600379943848,
        -0.59198391437530518,
        -0.22023099660873413,
        1
      ],
      "name": "Cube.001"
    },
    {
      "mesh": 1,
      "name": "Cube.001_Specs_specs1_New Material_0"
    },
    {
      "children": [
        10
      ],
      "matrix": [
        100,
        0,
        0,
        0,
        0,
        0.034557518501610041,
        -99.99999402888939,
        0,
        0,
        99.99999402888939,
        0.034557518501610041,
        0,
        4.8409981727600098,
        0.27710041403770447,
        -1.6529979705810547,
        1
      ],
      "name": "Cube.002"
    },
    {
      "mesh": 2,
      "name": "Cube.002_Specs_specs1_New Material 1_0"
    },
    {
      "children": [
        12
      ],
      "matrix": [
        100,
        0,
        0,
        0,
        0,
        0.034557518501610041,
        -99.99999402888939,
        0,
        0,
        99.99999402888939,
        0.034557518501610041,
        0,
        4.8409981727600098,
        0.27710041403770447,
        -1.6529979705810547,
        1
      ],
      "name": "Cube.003"
    },
    {
      "mesh": 3,
      "name": "Cube.003_Specs_New Material_0"
    },
    {
      "children": [
        14
      ],
      "matrix": [
        100,
        0,
        0,
        0,
        0,
        0.034557518501610041,
        -99.99999402888939,
        0,
        0,
        99.99999402888939,
        0.034557518501610041,
        0,
        4.8409981727600098,
        0.27710041403770447,
        -1.6529979705810547,
        1
      ],
      "name": "Cube.004"
    },
    {
      "mesh": 4,
      "name": "Cube.004_Specs_specs1_New Material 1_0"
    },
    {
      "children": [
        16
      ],
      "matrix": [
        4.7300302332998585e-06,
        -52.904491424560334,
        -5.8735784485631267e-15,
        0,
        -5.8735784485631267e-15,
        5.8735784485631267e-15,
        -52.904491424560547,
        0,
        52.904491424560334,
        4.7300302332998585e-06,
        0,
        0,
        0,
        0,
        3.5527136788005009e-15,
        1
      ],
      "name": "Cylinder"
    },
    {
      "mesh": 5,
      "name": "Cylinder_Specs_specs1_New Material 1_0"
    },
    {
      "children": [
        18
      ],
      "matrix": [
        4.7640281691935831e-06,
        -53.284751892089631,
        -5.9157958412037019e-15,
        0,
        -5.9157958412037019e-15,
        5.9157958412037019e-15,
        -53.284751892089844,
        0,
        53.284751892089631,
        4.7640281691935831e-06,
        0,
        0,
        2.4893310070037842,
        -0.30229410529136658,
        0.12656579911708832,
        1
      ],
      "name": "Cylinder.001"
    },
    {
      "mesh": 6,
      "name": "Cylinder.001_Specs_specs1_New Material 2_0"
    },
    {
      "children": [
        20
      ],
      "matrix": [
        2.3299658881608281,
        -2.2623556055880747,
        -1.0699037841199848,
        0,
        1.2994099153373393,
        2.6986127621328886,
        -2.8765586008094388,
        0,
        2.7476454623118713,
        1.5535409786485188,
        2.6986146803519455,
        0,
        0.85662907361984253,
        -0.52473717927932739,
        -0.081083223223686218,
        1
      ],
      "name": "Plane"
    },
    {
      "mesh": 7,
      "name": "Plane_Specs_New Material_0"
    }
  ],
  "scene": 0,
  "scenes": [
    {
      "name": "OSG_Scene",
      "nodes": [
        0
      ]
    }
  ]
}

