{
  "accessors": [
    {
      "bufferView": 2,
      "componentType": 5126,
      "count": 58185,
      "max": [
        3.2188100814819336,
        0.21407000720500946,
        -0.022280000150203705
      ],
      "min": [
        -3.2188100814819336,
        -0.22639000415802002,
        -8.6216402053833008
      ],
      "type": "VEC3"
    },
    {
      "bufferView": 2,
      "byteOffset": 698220,
      "componentType": 5126,
      "count": 58185,
      "max": [
        1,
        0.99999940395355225,
        0.98705774545669556
      ],
      "min": [
        -1,
        -0.99999904632568359,
        -0.99980521202087402
      ],
      "type": "VEC3"
    },
    {
      "bufferView": 3,
      "componentType": 5126,
      "count": 58185,
      "max": [
        0,
        0,
        0,
        1
      ],
      "min": [
        0,
        0,
        0,
        1
      ],
      "type": "VEC4"
    },
    {
      "bufferView": 1,
      "componentType": 5126,
      "count": 58185,
      "max": [
        0,
        0
      ],
      "min": [
        0,
        0
      ],
      "type": "VEC2"
    },
    {
      "bufferView": 0,
      "componentType": 5125,
      "count": 90240,
      "max": [
        58184
      ],
      "min": [
        0
      ],
      "type": "SCALAR"
    },
    {
      "bufferView": 2,
      "byteOffset": 1396440,
      "componentType": 5126,
      "count": 30816,
      "max": [
        3.0937199592590332,
        0.10480999946594238,
        10.622650146484375
      ],
      "min": [
        -3.0937199592590332,
        -0.2973800003528595,
        -0.31428000330924988
      ],
      "type": "VEC3"
    },
    {
      "bufferView": 2,
      "byteOffset": 1766232,
      "componentType": 5126,
      "count": 30816,
      "max": [
        0.99983835220336914,
        0.99999141693115234,
        0.99240177869796753
      ],
      "min": [
        -0.99983835220336914,
        -0.99999701976776123,
        -0.99744832515716553
      ],
      "type": "VEC3"
    },
    {
      "bufferView": 3,
      "byteOffset": 930960,
      "componentType": 5126,
      "count": 30816,
      "max": [
        0.99996960163116455,
        1,
        0.99993181228637695,
        1
      ],
      "min": [
        -0.99996960163116455,
        -1,
        -0.99997258186340332,
        -1
      ],
      "type": "VEC4"
    },
    {
      "bufferView": 1,
      "byteOffset": 465480,
      "componentType": 5126,
      "count": 30816,
      "max": [
        0.46303001046180725,
        0.97531002759933472
      ],
      "min": [
        0.0046100001782178879,
        0.00014000000373926014
      ],
      "type": "VEC2"
    },
    {
      "bufferView": 0,
      "byteOffset": 360960,
      "componentType": 5125,
      "count": 48384,
      "max": [
        30815
      ],
      "min": [
        0
      ],
      "type": "SCALAR"
    },
    {
      "bufferView": 2,
      "byteOffset": 2136024,
      "componentType": 5126,
      "count": 316,
      "max": [
        1.9507800340652466,
        -0.23670999705791473,
        0.68458998203277588
      ],
      "min": [
        -1.9507800340652466,
        -2.6203200817108154,
        -1.3577799797058105
      ],
      "type": "VEC3"
    },
    {
      "bufferView": 2,
      "byteOffset": 2139816,
      "componentType": 5126,
      "count": 316,
      "max": [
        0.99859631061553955,
        0.9901309609413147,
        0.98137980699539185
      ],
      "min": [
        -0.99859631061553955,
        -0.99947887659072876,
        -0.98410189151763916
      ],
      "type": "VEC3"
    },
    {
      "bufferView": 0,
      "byteOffset": 554496,
      "componentType": 5125,
      "count": 1872,
      "max": [
        315
      ],
      "min": [
        0
      ],
      "type": "SCALAR"
    },
    {
      "bufferView": 2,
      "byteOffset": 2143608,
      "componentType": 5126,
      "count": 358,
      "max": [
        47.070980072021484,
        -0.0010900000343099236,
        2.4589500427246094
      ],
      "min": [
        -47.070980072021484,
        -2.4206900596618652,
        -2.2728800773620605
      ],
      "type": "VEC3"
    },
    {
      "bufferView": 2,
      "byteOffset": 2147904,
      "componentType": 5126,
      "count": 358,
      "max": [
        0.99997907876968384,
        1,
        0.99988681077957153
      ],
      "min": [
        -0.99997895956039429,
        -0.99467730522155762,
        -0.99867242574691772
      ],
      "type": "VEC3"
    },
    {
      "bufferView": 0,
      "byteOffset": 561984,
      "componentType": 5125,
      "count": 1872,
      "max": [
        357
      ],
      "min": [
        0
      ],
      "type": "SCALAR"
    },
    {
      "bufferView": 2,
      "byteOffset": 2152200,
      "componentType": 5126,
      "count": 150,
      "max": [
        36.658271789550781,
        -1.8859699964523315,
        1.3649899959564209
      ],
      "min": [
        -36.658271789550781,
        -2.4728200435638428,
        -2.8604099750518799
      ],
      "type": "VEC3"
    },
    {
      "bufferView": 2,
      "byteOffset": 2154000,
      "componentType": 5126,
      "count": 150,
      "max": [
        0.98605048656463623,
        0.99944251775741577,
        0.94426470994949341
      ],
      "min": [
        -0.98605048656463623,
        -0.99947816133499146,
        -0.99512708187103271
      ],
      "type": "VEC3"
    },
    {
      "bufferView": 0,
      "byteOffset": 569472,
      "componentType": 5125,
      "count": 720,
      "max": [
        149
      ],
      "min": [
        0
      ],
      "type": "SCALAR"
    },
    {
      "bufferView": 2,
      "byteOffset": 2155800,
      "componentType": 5126,
      "count": 48,
      "max": [
        47.070980072021484,
        -0.24443000555038452,
        2.4560298919677734
      ],
      "min": [
        -47.070980072021484,
        -0.27897998690605164,
        0.35914000868797302
      ],
      "type": "VEC3"
    },
    {
      "bufferView": 2,
      "byteOffset": 2156376,
      "componentType": 5126,
      "count": 48,
      "max": [
        0.99997907876968384,
        0.58142966032028198,
        0.90666872262954712
      ],
      "min": [
        -0.99997895956039429,
        -0.57894843816757202,
        -0.96151942014694214
      ],
      "type": "VEC3"
    },
    {
      "bufferView": 0,
      "byteOffset": 572352,
      "componentType": 5125,
      "count": 192,
      "max": [
        47
      ],
      "min": [
        0
      ],
      "type": "SCALAR"
    }
  ],
  "asset": {
    "extras": {
      "author": "Akiko.Tomiyoshi (https://sketchfab.com/Akiko.Tomiyoshi)",
      "license": "CC-BY-4.0 (http://creativecommons.org/licenses/by/4.0/)",
      "source": "https://sketchfab.com/3d-models/glasses-a5c5c37808b94159ba858cd0a1be5f2b",
      "title": "glasses"
    },
    "generator": "Sketchfab-5.43.0",
    "version": "2.0"
  },
  "bufferViews": [
    {
      "buffer": 0,
      "byteLength": 573120,
      "byteOffset": 0,
      "name": "floatBufferViews",
      "target": 34963
    },
    {
      "buffer": 0,
      "byteLength": 712008,
      "byteOffset": 573120,
      "byteStride": 8,
      "name": "floatBufferViews",
      "target": 34962
    },
    {
      "buffer": 0,
      "byteLength": 2156952,
      "byteOffset": 1285128,
      "byteStride": 12,
      "name": "floatBufferViews",
      "target": 34962
    },
    {
      "buffer": 0,
      "byteLength": 1424016,
      "byteOffset": 3442080,
      "byteStride": 16,
      "name": "floatBufferViews",
      "target": 34962
    }
  ],
  "buffers": [
    {
      "byteLength": 4866096,
      "uri": "scene.bin"
    }
  ],
  "extensionsRequired": [
    "KHR_materials_pbrSpecularGlossiness"
  ],
  "extensionsUsed": [
    "KHR_materials_pbrSpecularGlossiness"
  ],
  "images": [
    {
      "uri": "textures/shell_diffuse.png"
    }
  ],
  "materials": [
    {
      "doubleSided": true,
      "extensions": {
        "KHR_materials_pbrSpecularGlossiness": {
          "diffuseFactor": [
            0.027606939300000001,
            0.0057799964000000001,
            0.0057799964000000001,
            1
          ],
          "glossinessFactor": 0.89999999850000001,
          "specularFactor": [
            0.80000001190000003,
            0.80000001190000003,
            0.80000001190000003
          ]
        }
      },
      "name": "camouflage"
    },
    {
      "doubleSided": true,
      "extensions": {
        "KHR_materials_pbrSpecularGlossiness": {
          "diffuseFactor": [
            1,
            1,
            1,
            1
          ],
          "diffuseTexture": {
            "index": 0,
            "texCoord": 0
          },
          "glossinessFactor": 0.89999999850000001,
          "specularFactor": [
            0.80000001190000003,
            0.80000001190000003,
            0.80000001190000003
          ]
        }
      },
      "name": "shell"
    },
    {
      "alphaMode": "BLEND",
      "doubleSided": true,
      "extensions": {
        "KHR_materials_pbrSpecularGlossiness": {
          "diffuseFactor": [
            1,
            1,
            1,
            0.46512957319999998
          ],
          "glossinessFactor": 0.40000000000000002,
          "specularFactor": [
            1,
            1,
            1
          ]
        }
      },
      "name": "Material.004"
    },
    {
      "doubleSided": true,
      "extensions": {
        "KHR_materials_pbrSpecularGlossiness": {
          "diffuseFactor": [
            0.020742511599999999,
            0.0045160538000000002,
            0.0045160538000000002,
            1
          ],
          "glossinessFactor": 0.89999999850000001,
          "specularFactor": [
            0.12332317255443218,
            0.12332317255443218,
            0.12332317255443218
          ]
        }
      },
      "name": "Material.001"
    },
    {
      "doubleSided": true,
      "extensions": {
        "KHR_materials_pbrSpecularGlossiness": {
          "diffuseFactor": [
            0.0042203665000000003,
            0.0040894824999999999,
            0.0040894824999999999,
            1
          ],
          "glossinessFactor": 0.25438262199999995,
          "specularFactor": [
            0.031474436500000001,
            0.030187048599999999,
            0.030187048599999999
          ]
        }
      },
      "name": "Material.002"
    },
    {
      "doubleSided": true,
      "extensions": {
        "KHR_materials_pbrSpecularGlossiness": {
          "diffuseFactor": [
            0.76656141899999997,
            0.53520901519999997,
            0.11783093460000001,
            1
          ],
          "glossinessFactor": 0.89999999850000001,
          "specularFactor": [
            0.80000001190000003,
            0.80000001190000003,
            0.80000001190000003
          ]
        }
      },
      "name": "Material.003"
    }
  ],
  "meshes": [
    {
      "name": "Cylinder_0",
      "primitives": [
        {
          "attributes": {
            "NORMAL": 1,
            "POSITION": 0,
            "TANGENT": 2,
            "TEXCOORD_0": 3
          },
          "indices": 4,
          "material": 0,
          "mode": 4
        }
      ]
    },
    {
      "name": "Cylinder_1",
      "primitives": [
        {
          "attributes": {
            "NORMAL": 6,
            "POSITION": 5,
            "TANGENT": 7,
            "TEXCOORD_0": 8
          },
          "indices": 9,
          "material": 1,
          "mode": 4
        }
      ]
    },
    {
      "name": "Cylinder.001_0",
      "primitives": [
        {
          "attributes": {
            "NORMAL": 11,
            "POSITION": 10
          },
          "indices": 12,
          "material": 2,
          "mode": 4
        }
      ]
    },
    {
      "name": "Cube_0",
      "primitives": [
        {
          "attributes": {
            "NORMAL": 14,
            "POSITION": 13
          },
          "indices": 15,
          "material": 3,
          "mode": 4
        }
      ]
    },
    {
      "name": "Cube_1",
      "primitives": [
        {
          "attributes": {
            "NORMAL": 17,
            "POSITION": 16
          },
          "indices": 18,
          "material": 4,
          "mode": 4
        }
      ]
    },
    {
      "name": "Cube_2",
      "primitives": [
        {
          "attributes": {
            "NORMAL": 20,
            "POSITION": 19
          },
          "indices": 21,
          "material": 5,
          "mode": 4
        }
      ]
    }
  ],
  "nodes": [
    {
      "children": [
        1
      ],
      "name": "RootNode (gltf orientation matrix)",
      "rotation": [
        -0.70710678118654746,
        -0,
        -0,
        0.70710678118654757
      ]
    },
    {
      "children": [
        2
      ],
      "name": "RootNode (model correction matrix)"
    },
    {
      "children": [
        3
      ],
      "name": "Root"
    },
    {
      "children": [
        4,
        5,
        6,
        8
      ],
      "matrix": [
        0.086010000000000017,
        0,
        0,
        0,
        0,
        0.086010000000000017,
        0,
        0,
        0,
        0,
        -0.0088000000000000023,
        0,
        -0,
        0,
        0,
        1
      ],
      "name": "Cylinder"
    },
    {
      "mesh": 0,
      "name": "Cylinder_0"
    },
    {
      "mesh": 1,
      "name": "Cylinder_1"
    },
    {
      "children": [
        7
      ],
      "matrix": [
        0.24038000000000001,
        0,
        0,
        0,
        0,
        0.12775,
        0,
        0,
        0,
        0,
        -2.3480799999999999,
        0,
        0,
        -0,
        -0,
        1
      ],
      "name": "Cylinder.001"
    },
    {
      "mesh": 2,
      "name": "Cylinder.001_0"
    },
    {
      "children": [
        9,
        10,
        11
      ],
      "matrix": [
        0.069740000000000024,
        0,
        0,
        0,
        0,
        2.4398599999999995,
        0,
        0,
        0,
        0,
        -2.9742499999999996,
        0,
        0,
        -0.10179000000000002,
        -0,
        1
      ],
      "name": "Cube"
    },
    {
      "mesh": 3,
      "name": "Cube_0"
    },
    {
      "mesh": 4,
      "name": "Cube_1"
    },
    {
      "mesh": 5,
      "name": "Cube_2"
    }
  ],
  "samplers": [
    {
      "magFilter": 9729,
      "minFilter": 9987,
      "wrapS": 10497,
      "wrapT": 10497
    }
  ],
  "scene": 0,
  "scenes": [
    {
      "name": "OSG_Scene",
      "nodes": [
        0
      ]
    }
  ],
  "textures": [
    {
      "sampler": 0,
      "source": 0
    }
  ]
}

