{
  "accessors": [
    {
      "bufferView": 2,
      "componentType": 5126,
      "count": 20740,
      "max": [
        -1.1584630012512207,
        0.007757999934256077,
        -0.0008529999759048223
      ],
      "min": [
        -2.815242052078247,
        -0.04123099893331528,
        -0.5719079971313477
      ],
      "type": "VEC3"
    },
    {
      "bufferView": 2,
      "byteOffset": 248880,
      "componentType": 5126,
      "count": 20740,
      "max": [
        0.9998835325241089,
        0.9999972581863403,
        0.9996205568313599
      ],
      "min": [
        -0.9998811483383179,
        -0.9999971389770508,
        -0.9997059106826782
      ],
      "type": "VEC3"
    },
    {
      "bufferView": 1,
      "componentType": 5126,
      "count": 20740,
      "max": [
        0.0,
        0.0
      ],
      "min": [
        0.0,
        0.0
      ],
      "type": "VEC2"
    },
    {
      "bufferView": 0,
      "componentType": 5125,
      "count": 124416,
      "type": "SCALAR"
    },
    {
      "bufferView": 2,
      "byteOffset": 497760,
      "componentType": 5126,
      "count": 27252,
      "max": [
        -1.142449975013733,
        0.015928000211715698,
        0.013371000066399574
      ],
      "min": [
        -2.9233078956604004,
        -0.1329530030488968,
        -0.5831549763679504
      ],
      "type": "VEC3"
    },
    {
      "bufferView": 2,
      "byteOffset": 824784,
      "componentType": 5126,
      "count": 27252,
      "max": [
        0.9999823570251465,
        1.0,
        1.0
      ],
      "min": [
        -0.9999823570251465,
        -1.0,
        -1.0
      ],
      "type": "VEC3"
    },
    {
      "bufferView": 1,
      "byteOffset": 165920,
      "componentType": 5126,
      "count": 27252,
      "max": [
        0.0,
        0.0
      ],
      "min": [
        0.0,
        0.0
      ],
      "type": "VEC2"
    },
    {
      "bufferView": 0,
      "byteOffset": 497664,
      "componentType": 5125,
      "count": 163488,
      "type": "SCALAR"
    },
    {
      "bufferView": 2,
      "byteOffset": 1151808,
      "componentType": 5126,
      "count": 52980,
      "max": [
        -1.0511419773101807,
        -0.0,
        0.00926900003105402
      ],
      "min": [
        -2.922563076019287,
        -1.8724550008773804,
        -0.6055229902267456
      ],
      "type": "VEC3"
    },
    {
      "bufferView": 2,
      "byteOffset": 1787568,
      "componentType": 5126,
      "count": 52980,
      "max": [
        0.999998927116394,
        1.0,
        0.9999898672103882
      ],
      "min": [
        -0.9999988079071045,
        -1.0,
        -1.0
      ],
      "type": "VEC3"
    },
    {
      "bufferView": 1,
      "byteOffset": 383936,
      "componentType": 5126,
      "count": 52980,
      "max": [
        0.0,
        0.0
      ],
      "min": [
        0.0,
        0.0
      ],
      "type": "VEC2"
    },
    {
      "bufferView": 0,
      "byteOffset": 1151616,
      "componentType": 5125,
      "count": 317664,
      "type": "SCALAR"
    },
    {
      "bufferView": 2,
      "byteOffset": 2423328,
      "componentType": 5126,
      "count": 13935,
      "max": [
        -1.7560869455337524,
        -0.08950299769639969,
        -0.1933169960975647
      ],
      "min": [
        -2.217617988586426,
        -0.16970300674438477,
        -0.3284910023212433
      ],
      "type": "VEC3"
    },
    {
      "bufferView": 2,
      "byteOffset": 2590548,
      "componentType": 5126,
      "count": 13935,
      "max": [
        0.9996720552444458,
        0.9974729418754578,
        0.9970811009407043
      ],
      "min": [
        -0.9996819496154785,
        -0.9999116659164429,
        -0.9997189044952393
      ],
      "type": "VEC3"
    },
    {
      "bufferView": 1,
      "byteOffset": 807776,
      "componentType": 5126,
      "count": 13935,
      "max": [
        0.0,
        0.0
      ],
      "min": [
        0.0,
        0.0
      ],
      "type": "VEC2"
    },
    {
      "bufferView": 0,
      "byteOffset": 2422272,
      "componentType": 5125,
      "count": 83058,
      "type": "SCALAR"
    },
    {
      "bufferView": 2,
      "byteOffset": 2757768,
      "componentType": 5126,
      "count": 17202,
      "max": [
        -1.7933969497680664,
        -0.04168799892067909,
        -0.2620309889316559
      ],
      "min": [
        -2.1803081035614014,
        -0.14224599301815033,
        -0.3498170077800751
      ],
      "type": "VEC3"
    },
    {
      "bufferView": 2,
      "byteOffset": 2964192,
      "componentType": 5126,
      "count": 17202,
      "max": [
        0.9999325275421143,
        0.9990653991699219,
        0.9999990463256836
      ],
      "min": [
        -0.9999327659606934,
        -0.9990551471710205,
        -0.9999998807907104
      ],
      "type": "VEC3"
    },
    {
      "bufferView": 1,
      "byteOffset": 919256,
      "componentType": 5126,
      "count": 17202,
      "max": [
        1.0,
        1.0
      ],
      "min": [
        0.0,
        0.0
      ],
      "type": "VEC2"
    },
    {
      "bufferView": 0,
      "byteOffset": 2754504,
      "componentType": 5125,
      "count": 99648,
      "type": "SCALAR"
    },
    {
      "bufferView": 2,
      "byteOffset": 3170616,
      "componentType": 5126,
      "count": 2802,
      "max": [
        -1.0503970384597778,
        -0.011792999692261219,
        -0.4739460051059723
      ],
      "min": [
        -1.1186399459838867,
        -0.1329530030488968,
        -0.5385559797286987
      ],
      "type": "VEC3"
    },
    {
      "bufferView": 2,
      "byteOffset": 3204240,
      "componentType": 5126,
      "count": 2802,
      "max": [
        0.9999786615371704,
        0.9999948740005493,
        1.0
      ],
      "min": [
        -0.9998494386672974,
        -0.9995275735855103,
        -0.9999998807907104
      ],
      "type": "VEC3"
    },
    {
      "bufferView": 1,
      "byteOffset": 1056872,
      "componentType": 5126,
      "count": 2802,
      "max": [
        0.0,
        0.0
      ],
      "min": [
        0.0,
        0.0
      ],
      "type": "VEC2"
    },
    {
      "bufferView": 0,
      "byteOffset": 3153096,
      "componentType": 5125,
      "count": 16800,
      "type": "SCALAR"
    }
  ],
  "asset": {
    "extras": {
      "author": "zeeka_3d (https://sketchfab.com/zeeka_3d)",
      "license": "CC-BY-4.0 (http://creativecommons.org/licenses/by/4.0/)",
      "source": "https://sketchfab.com/3d-models/glass-collection-spectacle-1-081efa065fa249fa8dd16eeb9ef4939e",
      "title": "Glass Collection: Spectacle 1"
    },
    "generator": "Sketchfab-11.59.0",
    "version": "2.0"
  },
  "bufferViews": [
    {
      "buffer": 0,
      "byteLength": 3220296,
      "name": "floatBufferViews",
      "target": 34963
    },
    {
      "buffer": 0,
      "byteLength": 1079288,
      "byteOffset": 3220296,
      "byteStride": 8,
      "name": "floatBufferViews",
      "target": 34962
    },
    {
      "buffer": 0,
      "byteLength": 3237864,
      "byteOffset": 4299584,
      "byteStride": 12,
      "name": "floatBufferViews",
      "target": 34962
    }
  ],
  "buffers": [
    {
      "byteLength": 7537448,
      "uri": "scene.bin"
    }
  ],
  "materials": [
    {
      "doubleSided": true,
      "name": "Basic_Glass",
      "pbrMetallicRoughness": {
        "baseColorFactor": [
          0.8,
          0.8,
          0.8,
          1.0
        ],
        "metallicFactor": 0.0,
        "roughnessFactor": 0.0
      }
    },
    {
      "doubleSided": true,
      "name": "Material.005",
      "pbrMetallicRoughness": {
        "baseColorFactor": [
          0.8,
          0.8,
          0.8,
          1.0
        ],
        "roughnessFactor": 0.161157
      }
    },
    {
      "doubleSided": true,
      "name": "Material.004",
      "pbrMetallicRoughness": {
        "baseColorFactor": [
          0.104293,
          0.104293,
          0.104293,
          1.0
        ],
        "roughnessFactor": 0.293388
      }
    },
    {
      "doubleSided": true,
      "emissiveFactor": [
        0.170621,
        0.170621,
        0.170621
      ],
      "name": "Plastic",
      "pbrMetallicRoughness": {
        "baseColorFactor": [
          0.51216,
          0.243799,
          0.012477,
          1.0
        ],
        "metallicFactor": 0.0,
        "roughnessFactor": 0.18777
      }
    },
    {
      "doubleSided": true,
      "name": "Material.001",
      "pbrMetallicRoughness": {
        "baseColorFactor": [
          0.076413,
          0.076413,
          0.076413,
          1.0
        ],
        "roughnessFactor": 0.161157
      }
    }
  ],
  "meshes": [
    {
      "name": "Object_0",
      "primitives": [
        {
          "attributes": {
            "NORMAL": 1,
            "POSITION": 0,
            "TEXCOORD_0": 2
          },
          "indices": 3,
          "material": 0,
          "mode": 4
        }
      ]
    },
    {
      "name": "Object_1",
      "primitives": [
        {
          "attributes": {
            "NORMAL": 5,
            "POSITION": 4,
            "TEXCOORD_0": 6
          },
          "indices": 7,
          "material": 1,
          "mode": 4
        }
      ]
    },
    {
      "name": "Object_2",
      "primitives": [
        {
          "attributes": {
            "NORMAL": 9,
            "POSITION": 8,
            "TEXCOORD_0": 10
          },
          "indices": 11,
          "material": 2,
          "mode": 4
        }
      ]
    },
    {
      "name": "Object_3",
      "primitives": [
        {
          "attributes": {
            "NORMAL": 13,
            "POSITION": 12,
            "TEXCOORD_0": 14
          },
          "indices": 15,
          "material": 3,
          "mode": 4
        }
      ]
    },
    {
      "name": "Object_4",
      "primitives": [
        {
          "attributes": {
            "NORMAL": 17,
            "POSITION": 16,
            "TEXCOORD_0": 18
          },
          "indices": 19,
          "material": 4,
          "mode": 4
        }
      ]
    },
    {
      "name": "Object_5",
      "primitives": [
        {
          "attributes": {
            "NORMAL": 21,
            "POSITION": 20,
            "TEXCOORD_0": 22
          },
          "indices": 23,
          "material": 1,
          "mode": 4
        }
      ]
    }
  ],
  "nodes": [
    {
      "children": [
        1
      ],
      "matrix": [
        1.0,
        0.0,
        0.0,
        0.0,
        0.0,
        2.220446049250313e-16,
        -1.0,
        0.0,
        0.0,
        1.0,
        2.220446049250313e-16,
        0.0,
        0.0,
        0.0,
        0.0,
        1.0
      ],
      "name": "Sketchfab_model"
    },
    {
      "children": [
        2
      ],
      "name": "root"
    },
    {
      "children": [
        3,
        9
      ],
      "matrix": [
        1.0,
        0.0,
        0.0,
        0.0,
        0.0,
        2.220446049250313e-16,
        1.0,
        0.0,
        0.0,
        -1.0,
        2.220446049250313e-16,
        0.0,
        0.0,
        0.0,
        0.0,
        1.0
      ],
      "name": "GLTF_SceneRootNode"
    },
    {
      "children": [
        4,
        5,
        6,
        7,
        8
      ],
      "matrix": [
        1.0,
        0.0,
        0.0,
        0.0,
        0.0,
        -1.685873969314855e-07,
        0.9999999999999858,
        0.0,
        0.0,
        -0.9999999999999858,
        -1.685873969314855e-07,
        0.0,
        0.0,
        0.0,
        3.6460437774658203,
        1.0
      ],
      "name": "Plane.006_1"
    },
    {
      "mesh": 0,
      "name": "Object_4"
    },
    {
      "mesh": 1,
      "name": "Object_5"
    },
    {
      "mesh": 2,
      "name": "Object_6"
    },
    {
      "mesh": 3,
      "name": "Object_7"
    },
    {
      "mesh": 4,
      "name": "Object_8"
    },
    {
      "children": [
        10
      ],
      "matrix": [
        1.0,
        0.0,
        0.0,
        0.0,
        0.0,
        -1.685873969314855e-07,
        0.9999999999999858,
        0.0,
        0.0,
        -0.9999999999999858,
        -1.685873969314855e-07,
        0.0,
        0.0,
        0.0,
        3.6460437774658203,
        1.0
      ],
      "name": "Plane.001_Plane.018_2"
    },
    {
      "mesh": 5,
      "name": "Object_10"
    }
  ],
  "scene": 0,
  "scenes": [
    {
      "name": "Sketchfab_Scene",
      "nodes": [
        0
      ]
    }
  ]
}
